<mxfile host="65bd71144e" pages="2">
    <diagram name="Page-1" id="fbcf5db9-b524-4cd4-e4f3-379dc89c3999">
        <mxGraphModel dx="1118" dy="779" grid="1" gridSize="10" guides="1" tooltips="1" connect="1" arrows="1" fold="1" page="1" pageScale="1" pageWidth="850" pageHeight="1100" background="none" math="0" shadow="0">
            <root>
                <mxCell id="0"/>
                <mxCell id="1" parent="0"/>
                <mxCell id="2a0f93b5c73ef8e7-1" value="" style="line;strokeWidth=10;direction=south;html=1;fillColor=none;fontSize=13;fontColor=#000000;align=center;strokeColor=#AE4132;" parent="1" vertex="1">
                    <mxGeometry x="360" y="110" width="10" height="590" as="geometry"/>
                </mxCell>
                <mxCell id="2a0f93b5c73ef8e7-2" value="" style="rounded=1;whiteSpace=wrap;html=1;strokeColor=none;strokeWidth=1;fillColor=#F2931E;fontSize=13;fontColor=#FFFFFF;align=center;gradientColor=none;gradientDirection=east;verticalAlign=top;shadow=1;" parent="1" vertex="1">
                    <mxGeometry x="120" y="110" width="280" height="110" as="geometry"/>
                </mxCell>
                <mxCell id="2a0f93b5c73ef8e7-3" value="1" style="text;html=1;strokeColor=none;fillColor=none;align=center;verticalAlign=middle;whiteSpace=wrap;fontSize=30;fontColor=#FFFFFF;" parent="1" vertex="1">
                    <mxGeometry x="130" y="155" width="40" height="20" as="geometry"/>
                </mxCell>
                <mxCell id="2a0f93b5c73ef8e7-4" value="" style="rounded=1;whiteSpace=wrap;html=1;strokeColor=none;strokeWidth=1;fillColor=#10739E;fontSize=13;fontColor=#FFFFFF;align=center;gradientColor=none;gradientDirection=east;verticalAlign=top;shadow=1;" parent="1" vertex="1">
                    <mxGeometry x="120" y="240" width="280" height="90" as="geometry"/>
                </mxCell>
                <mxCell id="2a0f93b5c73ef8e7-5" value="2" style="text;html=1;strokeColor=none;fillColor=none;align=center;verticalAlign=middle;whiteSpace=wrap;fontSize=30;fontColor=#FFFFFF;" parent="1" vertex="1">
                    <mxGeometry x="130" y="270" width="40" height="20" as="geometry"/>
                </mxCell>
                <mxCell id="2a0f93b5c73ef8e7-6" value="" style="rounded=1;whiteSpace=wrap;html=1;strokeColor=none;strokeWidth=1;fillColor=#F2931E;fontSize=13;fontColor=#FFFFFF;align=center;gradientColor=none;gradientDirection=east;verticalAlign=top;shadow=1;" parent="1" vertex="1">
                    <mxGeometry x="120" y="347.5" width="280" height="85" as="geometry"/>
                </mxCell>
                <mxCell id="2a0f93b5c73ef8e7-7" value="3" style="text;html=1;strokeColor=none;fillColor=none;align=center;verticalAlign=middle;whiteSpace=wrap;fontSize=30;fontColor=#FFFFFF;" parent="1" vertex="1">
                    <mxGeometry x="130" y="380" width="40" height="20" as="geometry"/>
                </mxCell>
                <mxCell id="2a0f93b5c73ef8e7-8" value="" style="rounded=1;whiteSpace=wrap;html=1;strokeColor=none;strokeWidth=1;fillColor=#10739E;fontSize=13;fontColor=#FFFFFF;align=center;gradientColor=none;gradientDirection=east;verticalAlign=top;shadow=1;" parent="1" vertex="1">
                    <mxGeometry x="385" y="476" width="280" height="85" as="geometry"/>
                </mxCell>
                <mxCell id="2a0f93b5c73ef8e7-9" value="4&lt;font style=&quot;font-size: 11px&quot;&gt;-2&lt;/font&gt;" style="text;html=1;strokeColor=none;fillColor=none;align=center;verticalAlign=middle;whiteSpace=wrap;fontSize=30;fontColor=#FFFFFF;" parent="1" vertex="1">
                    <mxGeometry x="390" y="500" width="40" height="20" as="geometry"/>
                </mxCell>
                <mxCell id="2a0f93b5c73ef8e7-10" value="" style="rounded=1;whiteSpace=wrap;html=1;strokeColor=none;strokeWidth=1;fillColor=#F2931E;fontSize=13;fontColor=#FFFFFF;align=center;gradientColor=none;gradientDirection=east;verticalAlign=top;shadow=1;" parent="1" vertex="1">
                    <mxGeometry x="80" y="590" width="310" height="85" as="geometry"/>
                </mxCell>
                <mxCell id="2a0f93b5c73ef8e7-11" value="5" style="text;html=1;strokeColor=none;fillColor=none;align=center;verticalAlign=middle;whiteSpace=wrap;fontSize=30;fontColor=#FFFFFF;" parent="1" vertex="1">
                    <mxGeometry x="90" y="622.5" width="40" height="20" as="geometry"/>
                </mxCell>
                <mxCell id="2a0f93b5c73ef8e7-18" value="&lt;h1&gt;&lt;font style=&quot;font-size: 18px&quot;&gt;주제선정&lt;/font&gt;&lt;/h1&gt;&lt;p&gt;&lt;font style=&quot;font-size: 6px&quot;&gt;각 특성화 고등학교의 진학·취업률 차이를 극복하기 위해 진학·취업률 차이에 영향을 미치는 요소 조사, 취업·진학률에 따른 학교의 특징을 분석&lt;/font&gt;&lt;/p&gt;" style="text;html=1;spacing=5;spacingTop=-20;whiteSpace=wrap;overflow=hidden;strokeColor=none;strokeWidth=4;fillColor=none;gradientColor=#007FFF;fontSize=5;fontColor=#FFFFFF;align=center;" parent="1" vertex="1">
                    <mxGeometry x="175" y="123.25" width="180" height="83.5" as="geometry"/>
                </mxCell>
                <mxCell id="2a0f93b5c73ef8e7-19" value="&lt;h1&gt;DATA 수집&lt;/h1&gt;&lt;p&gt;교육통계서비스,&amp;nbsp;&lt;span&gt;HIFIVE,&amp;nbsp;&lt;/span&gt;&lt;span&gt;한국 부동산원,&amp;nbsp;&lt;/span&gt;&lt;span&gt;부킹,&amp;nbsp;&lt;/span&gt;&lt;span&gt;통계청@지역통계총괄과&lt;/span&gt;&lt;/p&gt;" style="text;html=1;spacing=5;spacingTop=-20;whiteSpace=wrap;overflow=hidden;strokeColor=none;strokeWidth=4;fillColor=none;gradientColor=#007FFF;fontSize=9;fontColor=#FFFFFF;align=center;" parent="1" vertex="1">
                    <mxGeometry x="175" y="248.75" width="180" height="72.5" as="geometry"/>
                </mxCell>
                <mxCell id="2a0f93b5c73ef8e7-20" value="&lt;h1&gt;집계&lt;/h1&gt;&lt;p&gt;진학·취업률에 영향을 미칠 만 한 DATA를 java&lt;span&gt;&amp;nbsp;+ mysql로 DATA warehouse 를 만들어 집계&lt;/span&gt;&lt;/p&gt;" style="text;html=1;spacing=5;spacingTop=-20;whiteSpace=wrap;overflow=hidden;strokeColor=none;strokeWidth=4;fillColor=none;gradientColor=#007FFF;fontSize=9;fontColor=#FFFFFF;align=center;" parent="1" vertex="1">
                    <mxGeometry x="180" y="351.5" width="170" height="77" as="geometry"/>
                </mxCell>
                <mxCell id="2a0f93b5c73ef8e7-21" value="&lt;h1&gt;DATA 분석&lt;/h1&gt;&lt;p&gt;진학률과 취업률로 분류된 요소들의&amp;nbsp;&lt;span&gt;대표값 분석&lt;/span&gt;&lt;/p&gt;" style="text;html=1;spacing=5;spacingTop=-20;whiteSpace=wrap;overflow=hidden;strokeColor=none;strokeWidth=4;fillColor=none;gradientColor=#007FFF;fontSize=9;fontColor=#FFFFFF;align=center;" parent="1" vertex="1">
                    <mxGeometry x="430" y="479.5" width="230" height="77" as="geometry"/>
                </mxCell>
                <mxCell id="2a0f93b5c73ef8e7-22" value="&lt;h1&gt;DATA시각화&lt;/h1&gt;&lt;div&gt;Decision-making 을 위한 Orange3, python을 이용한 분석자료 시각화&lt;/div&gt;" style="text;html=1;spacing=5;spacingTop=-20;whiteSpace=wrap;overflow=hidden;strokeColor=none;strokeWidth=4;fillColor=none;gradientColor=#007FFF;fontSize=9;fontColor=#FFFFFF;align=center;" parent="1" vertex="1">
                    <mxGeometry x="160" y="594" width="210" height="77" as="geometry"/>
                </mxCell>
                <mxCell id="mlhQJHXakP10aqOgQbDr-1" value="" style="rounded=1;whiteSpace=wrap;html=1;strokeColor=none;strokeWidth=1;fillColor=#10739E;fontSize=13;fontColor=#FFFFFF;align=center;gradientColor=none;gradientDirection=east;verticalAlign=top;shadow=1;" parent="1" vertex="1">
                    <mxGeometry x="75" y="475.5" width="280" height="85" as="geometry"/>
                </mxCell>
                <mxCell id="mlhQJHXakP10aqOgQbDr-2" value="4&lt;font style=&quot;font-size: 14px&quot;&gt;-1&lt;/font&gt;" style="text;html=1;strokeColor=none;fillColor=none;align=center;verticalAlign=middle;whiteSpace=wrap;fontSize=30;fontColor=#FFFFFF;" parent="1" vertex="1">
                    <mxGeometry x="70" y="500" width="60" height="20" as="geometry"/>
                </mxCell>
                <mxCell id="mlhQJHXakP10aqOgQbDr-3" value="&lt;h1&gt;DATA 분석&lt;/h1&gt;&lt;p&gt;Pearson 상관 계수를 이용하여 종속변수(진학·취업률)와 독립변수(영향을 미칠만 한 요소들)의 상관관계 계량화&lt;/p&gt;" style="text;html=1;spacing=5;spacingTop=-20;whiteSpace=wrap;overflow=hidden;strokeColor=none;strokeWidth=4;fillColor=none;gradientColor=#007FFF;fontSize=9;fontColor=#FFFFFF;align=center;" parent="1" vertex="1">
                    <mxGeometry x="120" y="479.5" width="220" height="77" as="geometry"/>
                </mxCell>
                <mxCell id="mlhQJHXakP10aqOgQbDr-4" value="막연한 인상이 있다. ...." style="text;html=1;align=center;verticalAlign=middle;resizable=0;points=[];autosize=1;strokeColor=none;" parent="1" vertex="1">
                    <mxGeometry x="470" y="160" width="140" height="20" as="geometry"/>
                </mxCell>
                <mxCell id="mlhQJHXakP10aqOgQbDr-5" value="집중화 경향 : 평균, 중앙값, 최빈값" style="rounded=1;whiteSpace=wrap;html=1;" parent="1" vertex="1">
                    <mxGeometry x="680" y="480" width="120" height="60" as="geometry"/>
                </mxCell>
            </root>
        </mxGraphModel>
    </diagram>
    <diagram id="TZplxgLvdQztWX21CHD0" name="Page-2">
        <mxGraphModel dx="1945" dy="1948" grid="1" gridSize="10" guides="1" tooltips="1" connect="1" arrows="1" fold="1" page="1" pageScale="1" pageWidth="827" pageHeight="1169" math="0" shadow="0">
            <root>
                <mxCell id="HBBztgNymXZgD_4XfBUL-0"/>
                <mxCell id="HBBztgNymXZgD_4XfBUL-1" parent="HBBztgNymXZgD_4XfBUL-0"/>
                <mxCell id="HBBztgNymXZgD_4XfBUL-2" value="목차" style="text;html=1;align=center;verticalAlign=middle;resizable=0;points=[];autosize=1;strokeColor=#B09500;shadow=1;fillColor=#e3c800;fontColor=#000000;" parent="HBBztgNymXZgD_4XfBUL-1" vertex="1">
                    <mxGeometry x="70" y="-1139" width="40" height="20" as="geometry"/>
                </mxCell>
                <mxCell id="5MRgUuCNfdM5i_YYItIs-13" value="" style="edgeStyle=orthogonalEdgeStyle;rounded=0;orthogonalLoop=1;jettySize=auto;html=1;shadow=1;fillColor=#e3c800;strokeColor=#B09500;fontColor=#000000;" parent="HBBztgNymXZgD_4XfBUL-1" source="HBBztgNymXZgD_4XfBUL-3" target="5MRgUuCNfdM5i_YYItIs-3" edge="1">
                    <mxGeometry relative="1" as="geometry"/>
                </mxCell>
                <mxCell id="HBBztgNymXZgD_4XfBUL-3" value="특성화 고등학교를 다니는 학생이다 보니 특성화 고등학교에는 취업률과 진학률에 따른 서열이 존재함을 막연하게 느꼈다. 평준화된 교육을 지향하는 교육 정책에 반한다 생각했다.&lt;br&gt;&amp;nbsp;구체적으로 어떤 요소들이 특성화 고등학교의 서열(취업·진학률)에 영향을 미치는지 조사했다.&amp;nbsp;" style="whiteSpace=wrap;html=1;shadow=1;fillColor=#e3c800;strokeColor=#B09500;fontColor=#000000;" parent="HBBztgNymXZgD_4XfBUL-1" vertex="1">
                    <mxGeometry x="325" y="-1069" width="340" height="120" as="geometry"/>
                </mxCell>
                <mxCell id="4U7kLxwrX30E1wYsaR13-0" value="막연한 인상" style="text;html=1;align=center;verticalAlign=middle;resizable=0;points=[];autosize=1;strokeColor=#B09500;shadow=1;fillColor=#e3c800;fontColor=#000000;" parent="HBBztgNymXZgD_4XfBUL-1" vertex="1">
                    <mxGeometry x="50" y="-1069" width="80" height="20" as="geometry"/>
                </mxCell>
                <mxCell id="5MRgUuCNfdM5i_YYItIs-0" value="숫자로 표현하고 살펴보기" style="text;html=1;align=center;verticalAlign=middle;resizable=0;points=[];autosize=1;strokeColor=#B09500;shadow=1;fillColor=#e3c800;fontColor=#000000;" parent="HBBztgNymXZgD_4XfBUL-1" vertex="1">
                    <mxGeometry x="10" y="-689" width="150" height="20" as="geometry"/>
                </mxCell>
                <mxCell id="5MRgUuCNfdM5i_YYItIs-1" value="숫자가 막연한 인상을 뒷받침하고 있음을 인식" style="text;html=1;align=center;verticalAlign=middle;resizable=0;points=[];autosize=1;strokeColor=#B09500;shadow=1;fillColor=#e3c800;fontColor=#000000;" parent="HBBztgNymXZgD_4XfBUL-1" vertex="1">
                    <mxGeometry x="-220" y="-389" width="260" height="20" as="geometry"/>
                </mxCell>
                <mxCell id="5MRgUuCNfdM5i_YYItIs-2" value="3단계를 검증하기위한 통계학을 이용" style="text;html=1;align=center;verticalAlign=middle;resizable=0;points=[];autosize=1;strokeColor=#B09500;shadow=1;fillColor=#e3c800;fontColor=#000000;" parent="HBBztgNymXZgD_4XfBUL-1" vertex="1">
                    <mxGeometry x="-210" y="-350" width="210" height="20" as="geometry"/>
                </mxCell>
                <mxCell id="5MRgUuCNfdM5i_YYItIs-14" value="" style="edgeStyle=orthogonalEdgeStyle;rounded=0;orthogonalLoop=1;jettySize=auto;html=1;shadow=1;fillColor=#e3c800;strokeColor=#B09500;fontColor=#000000;" parent="HBBztgNymXZgD_4XfBUL-1" source="5MRgUuCNfdM5i_YYItIs-3" target="5MRgUuCNfdM5i_YYItIs-5" edge="1">
                    <mxGeometry relative="1" as="geometry"/>
                </mxCell>
                <mxCell id="5MRgUuCNfdM5i_YYItIs-3" value="막연한 인상&lt;br&gt;&lt;br&gt;비싼동내(강남, 반포)에 있는 학교들은 진학률이 상승 할 것이다.&amp;nbsp;&lt;br&gt;부모의 소득수준이 높을 수록 진학률이 상승 할 것이다.&amp;nbsp;&lt;br&gt;집값이 가파르게 상승한 지역(강남, 송도, 다산 등)은 진학률이 상승 할 것이다.&amp;nbsp;&lt;br&gt;많은 경험을 해볼 수록 진학·취업률이 상승할 수록 취업·진학률이 상승 할 것이다.&amp;nbsp;&lt;br&gt;한 학과의 전문성있는 학교(학과가 적은) 학교일 수록 취업률이 상승 할 것이다.&amp;nbsp;&lt;br&gt;교지면적당 교실 수,&amp;nbsp; 취업·진학률이 상승 할 것이다.&amp;nbsp;&lt;br&gt;보직교사의 여성비가 높을 수록 진학률이 상승 할 것이다.&amp;nbsp;&lt;br&gt;학생의 전출비가 낮을 수록 진학률이 높을 것이다.&amp;nbsp;&lt;br&gt;학교기본정보(학생, 교사, (특별)교실, 교지면적)은 아무런 관계가 없을 것이다.&amp;nbsp;" style="whiteSpace=wrap;html=1;shadow=1;fillColor=#e3c800;strokeColor=#B09500;fontColor=#000000;" parent="HBBztgNymXZgD_4XfBUL-1" vertex="1">
                    <mxGeometry x="220" y="-909" width="550" height="170" as="geometry"/>
                </mxCell>
                <mxCell id="5MRgUuCNfdM5i_YYItIs-4" value="학력 데이터" style="text;html=1;align=center;verticalAlign=middle;resizable=0;points=[];autosize=1;strokeColor=#B09500;shadow=1;fillColor=#e3c800;fontColor=#000000;" parent="HBBztgNymXZgD_4XfBUL-1" vertex="1">
                    <mxGeometry x="800" y="-859" width="80" height="20" as="geometry"/>
                </mxCell>
                <mxCell id="5MRgUuCNfdM5i_YYItIs-15" style="edgeStyle=orthogonalEdgeStyle;rounded=0;orthogonalLoop=1;jettySize=auto;html=1;exitX=0.5;exitY=1;exitDx=0;exitDy=0;entryX=0.5;entryY=0;entryDx=0;entryDy=0;shadow=1;fillColor=#e3c800;strokeColor=#B09500;fontColor=#000000;" parent="HBBztgNymXZgD_4XfBUL-1" source="5MRgUuCNfdM5i_YYItIs-5" target="5MRgUuCNfdM5i_YYItIs-6" edge="1">
                    <mxGeometry relative="1" as="geometry"/>
                </mxCell>
                <mxCell id="5MRgUuCNfdM5i_YYItIs-16" style="edgeStyle=orthogonalEdgeStyle;rounded=0;orthogonalLoop=1;jettySize=auto;html=1;exitX=0.5;exitY=1;exitDx=0;exitDy=0;entryX=0.5;entryY=0;entryDx=0;entryDy=0;shadow=1;fillColor=#e3c800;strokeColor=#B09500;fontColor=#000000;" parent="HBBztgNymXZgD_4XfBUL-1" source="5MRgUuCNfdM5i_YYItIs-5" target="5MRgUuCNfdM5i_YYItIs-10" edge="1">
                    <mxGeometry relative="1" as="geometry"/>
                </mxCell>
                <mxCell id="5MRgUuCNfdM5i_YYItIs-5" value="데이터 수집&lt;br&gt;&lt;div&gt;교육통계연보(교육통계서비스),&lt;/div&gt;&lt;div&gt;초중고 학교도서관 및 공공도서관 현황(교육통계서비스),&lt;/div&gt;&lt;div&gt;HIFIVE 학교별 학과정보(HIFIVE),&lt;/div&gt;&lt;div&gt;월간_매매가격지수_종합(한국 부동산원),&amp;nbsp;&lt;/div&gt;&lt;div&gt;행정구별 부동산평당가(부킹),&amp;nbsp;&lt;/div&gt;&lt;div&gt;주택매매가격변동률(통계청@지역통계총괄과)&lt;/div&gt;&lt;div&gt;&lt;br&gt;&lt;/div&gt;&lt;div&gt;+ mysql 테이블 보여주기&lt;/div&gt;" style="whiteSpace=wrap;html=1;shadow=1;fillColor=#e3c800;strokeColor=#B09500;fontColor=#000000;" parent="HBBztgNymXZgD_4XfBUL-1" vertex="1">
                    <mxGeometry x="310" y="-689" width="370" height="200" as="geometry"/>
                </mxCell>
                <mxCell id="o57Jj1lFetrbLNUDRLZG-1" style="edgeStyle=orthogonalEdgeStyle;rounded=0;orthogonalLoop=1;jettySize=auto;html=1;exitX=0.5;exitY=1;exitDx=0;exitDy=0;entryX=0.5;entryY=0;entryDx=0;entryDy=0;" parent="HBBztgNymXZgD_4XfBUL-1" source="5MRgUuCNfdM5i_YYItIs-6" target="o57Jj1lFetrbLNUDRLZG-0" edge="1">
                    <mxGeometry relative="1" as="geometry"/>
                </mxCell>
                <mxCell id="5MRgUuCNfdM5i_YYItIs-6" value="재수률과 진학률은 강한 음의 상관관계를 갖는다&lt;br&gt;진학률과 취업률은 강한 음의 상관관계를 갖는다&lt;br&gt;취업률과 학생 여교사 ratio는 유의미한 음의 상관관계를 갖는다&lt;br&gt;취업률과 전체 여교사 ratio는 유의미한 상관관계를 갖는다&lt;br&gt;+ 신기하게 알게된 점" style="whiteSpace=wrap;html=1;shadow=1;fillColor=#e3c800;strokeColor=#B09500;fontColor=#000000;" parent="HBBztgNymXZgD_4XfBUL-1" vertex="1">
                    <mxGeometry x="90" y="-419" width="370" height="140" as="geometry"/>
                </mxCell>
                <mxCell id="5MRgUuCNfdM5i_YYItIs-8" value="주관에서 객관으로" style="text;html=1;align=center;verticalAlign=middle;resizable=0;points=[];autosize=1;strokeColor=#B09500;shadow=1;fillColor=#e3c800;fontColor=#000000;" parent="HBBztgNymXZgD_4XfBUL-1" vertex="1">
                    <mxGeometry x="20" y="-619" width="110" height="20" as="geometry"/>
                </mxCell>
                <mxCell id="5MRgUuCNfdM5i_YYItIs-10" value="학교이름 keyWord 로 분석해보았다.&amp;nbsp;&lt;br&gt;" style="whiteSpace=wrap;html=1;shadow=1;fillColor=#e3c800;strokeColor=#B09500;fontColor=#000000;" parent="HBBztgNymXZgD_4XfBUL-1" vertex="1">
                    <mxGeometry x="570" y="-419" width="360" height="140" as="geometry"/>
                </mxCell>
                <mxCell id="5MRgUuCNfdM5i_YYItIs-12" style="edgeStyle=orthogonalEdgeStyle;rounded=0;orthogonalLoop=1;jettySize=auto;html=1;exitX=0.5;exitY=1;exitDx=0;exitDy=0;entryX=0.5;entryY=0;entryDx=0;entryDy=0;shadow=1;fillColor=#e3c800;strokeColor=#B09500;fontColor=#000000;" parent="HBBztgNymXZgD_4XfBUL-1" source="5MRgUuCNfdM5i_YYItIs-11" target="HBBztgNymXZgD_4XfBUL-3" edge="1">
                    <mxGeometry relative="1" as="geometry"/>
                </mxCell>
                <mxCell id="5MRgUuCNfdM5i_YYItIs-11" value="start" style="ellipse;whiteSpace=wrap;html=1;shadow=1;fillColor=#e3c800;strokeColor=#B09500;fontColor=#000000;" parent="HBBztgNymXZgD_4XfBUL-1" vertex="1">
                    <mxGeometry x="435" y="-1169" width="120" height="60" as="geometry"/>
                </mxCell>
                <mxCell id="o57Jj1lFetrbLNUDRLZG-0" value="취업률을 높이려면 실무 교사의 남자비율을 높이면 된다.&amp;nbsp;&lt;br&gt;(-&amp;gt; 진학률을 높이고 싶으면 실무교사의 여자비율을 높여야 한다. )&lt;br&gt;취업률을 높이려면 학생당 여교사 비율이 줄어들어야 한다.&amp;nbsp;&lt;br&gt;(-&amp;gt; 진학률을 높이려면 학생당 여교사 비율을 높여야 한다. )" style="whiteSpace=wrap;html=1;" parent="HBBztgNymXZgD_4XfBUL-1" vertex="1">
                    <mxGeometry x="65" y="-165" width="420" height="90" as="geometry"/>
                </mxCell>
            </root>
        </mxGraphModel>
    </diagram>
</mxfile>